<svg width="950" height="149" viewBox="0 0 950 149" fill="none" xmlns="http://www.w3.org/2000/svg">
<path d="M744.217 4.05865C746.913 1.36233 750.271 0 754.112 0C757.859 0 761.11 1.38181 763.68 4.0882C766.357 6.7795 767.709 10.1267 767.709 13.9543C767.709 17.7818 766.357 21.1292 763.68 23.8205C761.11 26.5269 757.859 27.9086 754.112 27.9086C750.271 27.9086 746.913 26.5462 744.217 23.8499C741.52 21.1536 740.158 17.7958 740.158 13.9543C740.158 10.1127 741.52 6.75496 744.217 4.05865Z" fill="black"/>
<path d="M742.837 38.043H764.852V141.68H742.837V38.043Z" fill="black"/>
<path d="M866.357 38.043H949.547V55.0154L894.29 122.523H949.904V141.68H866V124.532L921.09 57.0212H866.357V38.043Z" fill="black"/>
<path d="M858.55 38.043H775.36V57.0212H830.092L775.003 124.532V141.68H858.907V122.523H803.293L858.55 55.0154V38.043Z" fill="black"/>
<path d="M611.762 38.043H589.031L621.559 141.68H642.6L664.039 71.0269L685.479 141.68H706.523L738.862 38.043H716.663L696.627 112.532L675.137 38.043H654.207L632.174 112.564L611.762 38.043Z" fill="black"/>
<path fill-rule="evenodd" clip-rule="evenodd" d="M504.382 43.0792C511.99 38.6414 520.413 36.4356 529.588 36.4356C538.584 36.4356 546.545 38.3756 553.368 42.3664C557.139 44.572 560.405 47.1213 563.143 50.02V38.043H585.336V141.68H563.143V129.336C560.311 132.366 556.93 135.034 553.025 137.349L553.011 137.357C546.194 141.344 538.294 143.288 529.41 143.288C520.219 143.288 511.836 141.014 504.333 136.436C496.834 131.861 490.946 125.446 486.671 117.273C482.38 109.07 480.27 99.7905 480.27 89.5044C480.27 79.1121 482.375 69.878 486.683 61.891C490.965 53.8345 496.86 47.5412 504.364 43.0899L504.373 43.0845L504.382 43.0792ZM532.803 56.3069C527.204 56.3069 522.164 57.6185 517.622 60.2138C513.124 62.7842 509.5 66.5435 506.757 71.5906C504.049 76.5742 502.642 82.5141 502.642 89.5044C502.642 96.6154 504.05 102.68 506.764 107.787C509.506 112.829 513.134 116.653 517.644 119.344C522.18 121.93 527.213 123.238 532.803 123.238C538.399 123.238 543.436 121.928 547.975 119.336C552.607 116.641 556.286 112.816 559.022 107.785C561.739 102.672 563.143 96.6658 563.143 89.683C563.143 82.6927 561.736 76.7528 559.028 71.7692C556.294 66.7393 552.623 62.9817 548.01 60.4067L547.975 60.3872L547.94 60.3667C543.405 57.667 538.381 56.3069 532.803 56.3069Z" fill="black"/>
<path d="M452.229 13.3955H430.215V38.043H417.534V57.1999H430.215V112.009C430.215 121.903 432.555 129.716 437.931 134.667C443.191 139.512 450.806 141.68 460.243 141.68H477.77V122.166H462.922C458.166 122.166 455.603 121.237 454.391 120.121C453.186 118.891 452.229 116.449 452.229 112.009V57.1999H477.77V38.043H452.229V13.3955Z" fill="black"/>
<path fill-rule="evenodd" clip-rule="evenodd" d="M329.342 43.0792C336.949 38.6414 345.373 36.4356 354.548 36.4356C363.543 36.4356 371.505 38.3756 378.328 42.3664C382.099 44.572 385.365 47.1213 388.103 50.02V38.043H410.296V141.68H388.103V129.336C385.27 132.366 381.89 135.034 377.985 137.349L377.971 137.357C371.154 141.344 363.254 143.288 354.369 143.288C345.179 143.288 336.796 141.014 329.293 136.436C321.794 131.861 315.906 125.446 311.63 117.273C307.34 109.07 305.23 99.7905 305.23 89.5044C305.23 79.1115 307.335 69.877 311.643 61.8897C315.925 53.8338 321.82 47.541 329.324 43.0899L329.333 43.0845L329.342 43.0792ZM357.763 56.3069C352.163 56.3069 347.124 57.6185 342.582 60.2138C338.084 62.7842 334.46 66.5435 331.717 71.5906C329.009 76.5742 327.602 82.5141 327.602 89.5044C327.602 96.615 329.009 102.679 331.723 107.786C334.466 112.829 338.093 116.653 342.604 119.344C347.14 121.93 352.172 123.238 357.763 123.238C363.359 123.238 368.395 121.928 372.935 119.336C377.566 116.641 381.245 112.817 383.981 107.787C386.698 102.674 388.103 96.6666 388.103 89.683C388.103 82.6927 386.696 76.7528 383.987 71.7692C381.254 66.7393 377.583 62.9817 372.969 60.4067L372.934 60.3872L372.9 60.3667C368.364 57.667 363.34 56.3069 357.763 56.3069Z" fill="black"/>
<path fill-rule="evenodd" clip-rule="evenodd" d="M294.956 13.9543H272.763V50.0424C269.741 46.9569 266.146 44.3228 262.002 42.1357C255.026 38.3341 247.471 36.4355 239.386 36.4355C230.1 36.4355 221.615 38.6378 214.002 43.0791L213.993 43.0845L213.984 43.0899C206.48 47.5409 200.585 53.8338 196.303 61.8896C191.995 69.8769 189.89 79.1115 189.89 89.5044C189.89 99.7905 191.999 109.07 196.29 117.273C200.566 125.446 206.454 131.861 213.953 136.436L213.962 136.442L213.971 136.447C221.583 141.014 230.017 143.288 239.208 143.288C248.092 143.288 255.992 141.344 262.809 137.357L262.827 137.347L262.844 137.336C266.662 135.031 269.974 132.358 272.763 129.313V141.68H294.956V13.9543ZM227.242 60.2138C231.783 57.6185 236.823 56.3068 242.423 56.3068C248 56.3068 253.024 57.667 257.56 60.3666L257.594 60.3871L257.629 60.4067C262.243 62.9817 265.913 66.7393 268.647 71.7692C271.356 76.7528 272.763 82.6926 272.763 89.683C272.763 96.6663 271.358 102.673 268.641 107.787C265.905 112.817 262.226 116.641 257.594 119.336C253.055 121.928 248.018 123.238 242.423 123.238C236.832 123.238 231.8 121.93 227.264 119.344C222.753 116.653 219.126 112.829 216.383 107.787C213.669 102.679 212.261 96.6152 212.261 89.5044C212.261 82.514 213.668 76.5742 216.377 71.5906C219.12 66.5435 222.744 62.7841 227.242 60.2138Z" fill="black"/>
<path fill-rule="evenodd" clip-rule="evenodd" d="M0 15.875C0 14.8395 0.835914 14 1.86706 14H84.0179C119.218 14 148.098 41.1728 150.994 75.7703C151.083 76.8423 150.229 77.75 149.158 77.75H113.891C94.2168 77.75 77.3533 59.5644 72.8111 39.4209C72.109 36.3075 69.4761 33.8947 66.2973 33.8947C63.1186 33.8947 60.4846 36.3068 59.8044 39.4251C55.3809 59.7039 39.2126 77.75 18.6707 77.75H1.86706C0.835913 77.75 0 76.9105 0 75.875V15.875ZM1.86706 89C0.835913 89 0 89.8395 0 90.875V147.125C0 148.161 0.835914 149 1.86706 149H84.0179C117.901 149 145.928 123.822 150.56 91.0802C150.717 89.9742 149.85 89 148.737 89H113.891V89.0189C95.1872 89.0189 78.6187 105.597 73.1591 123.965C72.2338 127.078 69.516 129.439 66.2809 129.439C63.0457 129.439 60.3263 127.079 59.4231 123.96C54.0947 105.555 38.2646 89 19.093 89H1.86706Z" fill="black"/>
</svg>
