<svg width="64" height="64" viewBox="0 0 64 64" fill="none" xmlns="http://www.w3.org/2000/svg">
<path fill-rule="evenodd" clip-rule="evenodd" d="M9 10.604C9 10.2704 9.26929 10 9.60147 10H36.0662C47.4058 10 56.7094 18.7537 57.6423 29.8993C57.6712 30.2446 57.3962 30.537 57.0511 30.537H45.6898C39.3518 30.537 33.9192 24.6786 32.456 18.1893C32.2298 17.1864 31.3816 16.4091 30.3576 16.4091C29.3335 16.4091 28.485 17.1861 28.2659 18.1907C26.8409 24.7235 21.6323 30.537 15.0147 30.537H9.60147C9.26929 30.537 9 30.2666 9 29.933V10.604ZM9.60147 34.1612C9.26929 34.1612 9 34.4317 9 34.7653V52.8862C9 53.2198 9.26929 53.4902 9.60147 53.4902H36.0662C46.9816 53.4902 56.0105 45.3792 57.5028 34.8314C57.5532 34.4751 57.2738 34.1612 56.9154 34.1612H45.6898V34.1673C39.6644 34.1673 34.3269 39.5078 32.5681 45.4252C32.27 46.4281 31.3945 47.1885 30.3523 47.1885C29.3101 47.1885 28.434 46.4285 28.1431 45.4235C26.4265 39.4943 21.3269 34.1612 15.1508 34.1612H9.60147Z" fill="#0B0813"/>
</svg>
